<?xml version="1.0" encoding="UTF-8" standalone="no"?>
<!DOCTYPE svg PUBLIC "-//W3C//DTD SVG 1.1//EN" "http://www.w3.org/Graphics/SVG/1.1/DTD/svg11.dtd">
<!-- Created with Vectornator (http://vectornator.io/) -->
<svg height="100%" stroke-miterlimit="10" style="fill-rule:nonzero;clip-rule:evenodd;stroke-linecap:round;stroke-linejoin:round;" version="1.1" viewBox="0 0 841.995 595.35" width="100%" xml:space="preserve" xmlns="http://www.w3.org/2000/svg" xmlns:xlink="http://www.w3.org/1999/xlink">
<defs/>
<g >
<path d="M829.76 422.318C751.791 402.825 641.845 491.656 543.975 457.025C454.555 425.385 469.755 278 569.082 306.379C681.846 338.597 571.447 490.254 498.928 501.333C245.84 540 265.049 223.214 343.113 236.225C413.769 248.001 303.909 448.747 201.328 432.656C83.3736 414.153 71.139 213.48 68.4044 123.24C68.277 119.037 70.3062 92.5154 63.2352 90.7476C59.0218 89.6943 17.3934 243.099 13.0197 260.594C8.65659 278.047 23.6919 226.229 28.5274 208.902C31.9999 196.459 46.6813 106.231 55.8506 102.563C59.6022 101.062 145.714 204.584 159.235 213.333" fill="none" opacity="1" stroke="#949494" stroke-linecap="round" stroke-linejoin="round" stroke-width="22.9724" />
</g>
</svg>