<?xml version="1.0"?>
<svg width="760" height="160" xmlns="http://www.w3.org/2000/svg" xmlns:svg="http://www.w3.org/2000/svg" clip-rule="evenodd" fill-rule="evenodd" version="1.1">
 <g class="layer">
  <title>Layer 1</title>
  <g fill="#000" id="svg_1">
   <path d="m90.42,0.29c30.53,-1.98 57.87,6.18 82,24.5c5.81,4.81 10.48,10.47 14,17c-1.65,2.99 -3.99,5.32 -7,7c-18.25,10.37 -36.41,20.87 -54.5,31.5c-0.67,-1 -0.67,-2 0,-3c11.19,-16.38 21.35,-33.38 30.5,-51c-1.38,-2.21 -3.38,-3.71 -6,-4.5c-37.18,-11.72 -65.01,-0.56 -83.5,33.5c-11.23,32.27 -3.06,58.43 24.5,78.5c30.62,16.01 57.95,11.67 82,-13c1.8,-1.5 3.63,-1.67 5.5,-0.5c0.67,2.67 0.67,5.33 0,8c-28.49,27.26 -62.33,37.09 -101.5,29.5c-29.05,-4.1 -51.55,-18.27 -67.5,-42.5c-16.92,-37.06 -9.76,-68.56 21.5,-94.5c18.26,-12.14 38.26,-18.97 60,-20.5z" id="svg_2"/>
   <path d="m265.42,27.29c23.39,-1.1 38.22,9.57 44.5,32c9.13,31.85 17.63,63.85 25.5,96c-15.68,0.33 -31.35,0 -47,-1c-1.68,-6.37 -3.51,-12.71 -5.5,-19c-23.16,25.16 -49.99,30 -80.5,14.5c-18.72,-14.39 -22.89,-32.22 -12.5,-53.5c11.62,-13.98 26.62,-20.98 45,-21c4.89,0.01 9.72,0.51 14.5,1.5c7.52,2.28 14.52,5.28 21,9c-3.33,-11 -6.67,-22 -10,-33c-19.01,-0.28 -38.01,-0.95 -57,-2c20.65,-8.16 41.31,-15.99 62,-23.5zm-15,67c20,1.15 28.17,11.49 24.5,31c-6.93,13.53 -17.43,17.37 -31.5,11.5c-12.22,-7.99 -15.05,-18.49 -8.5,-31.5c3.8,-5.8 8.96,-9.46 15.5,-11z" id="svg_3"/>
   <path d="m371.42,27.29c12.93,-0.54 21.77,5.12 26.5,17c0.56,0.52 1.23,0.86 2,1c13.66,-6.25 27.49,-12.08 41.5,-17.5c13.03,-1.28 21.53,4.22 25.5,16.5c1.33,36.99 1.83,73.99 1.5,111c-16,0 -32,0 -48,0c0.17,-32.67 0,-65.34 -0.5,-98c-6.67,-8 -13.33,-8 -20,0c-0.5,32.66 -0.67,65.33 -0.5,98c-15.67,0 -31.33,0 -47,0c0,-34.33 0,-68.67 0,-103c-10.66,-0.53 -21.33,-1.03 -32,-1.5c16.83,-8.42 33.83,-16.25 51,-23.5z" id="svg_4"/>
   <path d="m546.42,27.29c44.28,0.45 68.61,22.62 73,66.5c-1.79,33.11 -18.46,54.44 -50,64c-35.9,6.3 -61.74,-6.87 -77.5,-39.5c-11.15,-39.19 1.35,-68.03 37.5,-86.5c5.67,-2 11.34,-3.5 17,-4.5zm-6,10c6.73,0.11 11.56,3.11 14.5,9c8.69,29.61 16.53,59.44 23.5,89.5c-1.82,10.16 -7.82,14.49 -18,13c-3.06,-1.06 -5.56,-2.89 -7.5,-5.5c-9.57,-30.63 -17.74,-61.63 -24.5,-93c1.3,-6.96 5.3,-11.3 12,-13z" id="svg_5"/>
   <path d="m661.42,27.29c6.89,-0.84 13.23,0.66 19,4.5c4.66,3.97 8.49,8.47 11.5,13.5c13.6,-6.42 27.43,-12.25 41.5,-17.5c16.49,-0.18 25.32,7.98 26.5,24.5c0.5,34.33 0.67,68.66 0.5,103c-15.67,0 -31.33,0 -47,0c-0.07,-32.67 -0.57,-65.34 -1.5,-98c-7.87,-7.22 -14.87,-6.56 -21,2c-0.5,32 -0.67,64 -0.5,96c-15.67,0 -31.33,0 -47,0c0,-34.33 0,-68.67 0,-103c-9.76,0.45 -19.43,-0.22 -29,-2c15.4,-8.24 31.07,-15.91 47,-23z" id="svg_6"/>
  </g>
 </g>
</svg>