<?xml version="1.0"?>
<svg width="372" height="219" xmlns="http://www.w3.org/2000/svg" xmlns:svg="http://www.w3.org/2000/svg">
 <g class="layer" fill="#000">
  <title>Layer 1</title>
  <path d="m297.4,44.59c-6.49,23.94 -12.88,47.78 -19.1,71.72c-3.11,11.97 -6.21,23.94 -9.87,35.72c-3.47,11.51 -7.77,23.75 -14.07,34.26c-6.49,10.87 -14.98,19.37 -26.68,24.85c-4.75,2.19 -9.5,3.65 -14.62,4.75c-7.13,1.46 -14.25,2.1 -21.56,2.56c-18,1.01 -56.19,0.82 -74.19,0.82l11.06,-40.84c8.31,0 16.72,0 25.03,-0.27c8.04,-0.18 16.9,-0.64 24.85,-2.47c8.68,-2.1 15.26,-5.57 21.01,-12.7c5.21,-6.4 8.77,-14.44 11.6,-22.02c5.3,-13.89 10.69,-33.62 14.44,-47.88c4.29,-16.17 8.41,-32.34 12.61,-48.51l59.48,0zm74.28,0l-32.07,118.96l-59.48,0l32.16,-118.96l59.39,0zm-196.07,-44.59l59.48,0c-6.21,23.21 -12.43,46.41 -18.73,69.62c-4.39,16.17 -8.77,32.34 -13.52,48.42c-2.1,6.94 -4.2,13.98 -6.94,20.74c-2.19,5.48 -4.57,10.32 -9.14,14.44c-3.38,3.02 -7.04,4.93 -11.33,6.21c-5.57,1.74 -11.15,2.38 -16.81,2.92c-8.22,0.64 -16.45,0.82 -24.67,0.91c-18.91,0.37 -53.27,0.27 -72.18,0.18c-6.76,0 -13.52,-0.09 -20.37,-0.18c-4.93,-0.09 -9.78,-0.18 -14.71,-0.55c-3.29,-0.18 -6.58,-0.46 -9.78,-1.01c-2.19,-0.46 -4.39,-1.01 -6.4,-1.92c-6.85,-2.92 -10.32,-8.86 -10.51,-16.08c-0.09,-4.2 0.64,-8.13 1.46,-12.15c1.19,-5.66 2.65,-11.24 4.11,-16.9c2.74,-10.69 7.86,-30.42 11.79,-40.84c3.11,-8.13 7.22,-16.26 14.98,-21.38c4.29,-2.92 8.86,-4.39 13.89,-5.39c3.75,-0.82 7.49,-1.19 11.33,-1.46c6.3,-0.46 12.7,-0.64 19,-0.73c9.05,-0.18 18.09,-0.18 27.14,-0.27l22.48,0l22.57,0l-8.04,29.79c-13.43,0 -26.77,-0.09 -40.2,0c-3.84,0 -7.77,0 -11.69,0.27c-1.37,0.09 -2.74,0.18 -4.11,0.64c-1.74,0.64 -2.56,1.74 -3.38,3.29c-1.1,2.38 -1.74,4.75 -2.47,7.22c-1.1,3.75 -2.19,7.58 -3.2,11.33c-1.55,5.85 -3.11,11.6 -4.66,17.45c-0.55,2.19 -1.1,4.29 -1.55,6.49c-0.27,1.55 -0.55,3.11 -0.73,4.66c-0.18,1.64 -0.18,3.75 0.82,5.3c1.01,1.64 2.83,2.01 4.48,2.28c1.92,0.27 3.75,0.27 5.66,0.37c3.02,0.09 6.12,0.09 9.23,0.09c8.41,0.09 16.81,0.09 25.31,0c3.84,0 7.77,-0.09 11.6,-0.18c2.65,-0.09 5.3,-0.18 7.95,-0.82c2.01,-0.55 3.56,-1.28 4.93,-2.92c0.91,-1.1 1.55,-2.28 2.1,-3.65c1.28,-3.2 2.28,-6.58 3.29,-9.87c3.75,-12.88 7.22,-25.86 10.69,-38.74l10.42,-38.74l10.42,-38.83l59.48,0l-59.48,0z" fill-rule="evenodd" id="svg_1"/>
 </g>
</svg>