<?xml version="1.0" standalone="no"?>
<!DOCTYPE svg PUBLIC "-//W3C//DTD SVG 20010904//EN"
 "http://www.w3.org/TR/2001/REC-SVG-20010904/DTD/svg10.dtd">
<svg version="1.0" xmlns="http://www.w3.org/2000/svg"
 width="1341.000000pt" height="224.000000pt" viewBox="0 0 1341.000000 224.000000"
 preserveAspectRatio="xMidYMid meet">

<g transform="translate(0.000000,224.000000) scale(0.100000,-0.100000)"
fill="#000000" stroke="none">
<path d="M180 2233 c-80 -14 -135 -55 -161 -123 -11 -28 -14 -217 -17 -970 -2
-514 -1 -963 3 -998 l7 -62 237 0 c152 0 250 4 271 11 59 21 60 29 60 524 l0
445 401 0 c257 0 407 4 420 10 17 10 19 22 19 125 l0 115 -421 0 -421 0 4 308
c2 232 6 313 16 330 28 49 54 52 446 52 216 0 375 4 391 10 l26 10 -3 107 -3
108 -625 1 c-344 1 -636 -1 -650 -3z"/>
<path d="M1814 2226 c-18 -8 -34 -24 -37 -37 -12 -44 -8 -1654 4 -1711 63
-304 389 -472 914 -471 266 0 495 44 646 124 81 43 163 130 204 214 65 133 65
133 65 1060 l0 835 -222 0 c-226 0 -285 -7 -309 -37 -12 -13 -15 -172 -19
-877 -6 -938 -3 -897 -62 -976 -52 -71 -222 -119 -379 -106 -144 12 -226 60
-270 158 l-24 53 -3 893 -3 892 -237 0 c-176 -1 -245 -4 -268 -14z"/>
<path d="M4684 2226 c-20 -9 -35 -25 -43 -46 -8 -24 -11 -258 -11 -815 0 -522
-4 -801 -11 -840 -26 -143 -106 -224 -259 -263 -36 -9 -135 -16 -287 -19
l-233 -5 0 -98 c0 -70 4 -101 14 -109 23 -19 348 -33 502 -21 312 24 499 92
639 234 77 78 119 152 157 276 l22 75 4 823 3 822 -233 0 c-173 -1 -241 -4
-264 -14z"/>
<path d="M6971 2229 c-72 -14 -113 -41 -139 -92 -24 -45 -24 -52 -29 -389 -2
-189 -6 -352 -8 -364 -3 -13 -76 -78 -186 -165 l-181 -144 186 -3 186 -2 0
-496 0 -495 260 3 260 3 27 28 28 27 3 460 3 460 389 0 c274 0 397 3 415 12
25 11 25 12 25 130 l0 118 -415 0 -415 0 0 283 c0 165 4 298 11 320 20 72 14
71 464 77 l400 5 3 118 3 117 -623 -1 c-343 -1 -643 -5 -667 -10z"/>
<path d="M8642 2225 c-18 -8 -37 -26 -42 -40 -6 -17 -10 -402 -10 -1066 l0
-1040 250 3 c244 3 250 3 272 26 l23 23 3 1054 2 1055 -232 0 c-178 -1 -241
-4 -266 -15z"/>
<path d="M9714 2226 c-20 -9 -35 -25 -43 -46 -8 -24 -11 -292 -11 -950 0
-1018 -2 -984 66 -1059 19 -21 58 -49 87 -62 l52 -24 523 -3 c463 -3 527 -1
548 13 23 15 24 21 24 114 l0 99 -312 4 c-295 3 -315 4 -353 24 -22 12 -49 36
-60 55 -20 33 -20 55 -23 942 l-3 907 -232 0 c-173 -1 -240 -4 -263 -14z"/>
<path d="M11293 2229 c-18 -5 -41 -22 -50 -36 -17 -25 -18 -95 -21 -1070 l-2
-1043 118 0 c78 0 122 4 130 12 9 9 12 213 12 857 0 513 4 852 10 861 7 11 12
12 20 4 9 -9 264 -986 427 -1632 l26 -103 181 3 c206 3 228 10 262 73 13 23
108 381 225 845 111 443 206 811 212 817 5 7 13 10 18 7 5 -3 9 -380 9 -875
l0 -869 223 0 c254 0 282 6 304 70 17 51 18 2061 1 2078 -18 18 -659 16 -711
-2 -50 -18 -76 -42 -98 -91 -9 -22 -83 -317 -163 -655 -193 -818 -203 -861
-209 -867 -8 -7 -11 3 -192 827 -92 415 -173 765 -181 778 -14 22 -16 22 -267
21 -138 0 -267 -5 -284 -10z"/>
<path fill="#E63230" d="M5737 2223 c-46 -12 -47 -29 -47 -593 0 -300 4 -530 9 -530 16 0 506
390 517 413 18 33 31 665 15 695 -12 22 -14 22 -244 21 -128 -1 -240 -3 -250
-6z"/>
<path d="M5690 570 l0 -491 250 3 c244 3 250 3 272 26 l23 23 3 464 3 465
-276 0 -275 0 0 -490z"/>
</g>
</svg>
