<?xml version="1.0"?>
<svg width="904" height="71" xmlns="http://www.w3.org/2000/svg" xmlns:svg="http://www.w3.org/2000/svg" enable-background="new 2.5 13 118 9" version="1.1" xml:space="preserve">
 <g class="layer">
  <title>Layer 1</title>
  <path class="svg" d="m153.48,0.78l-22.71,39.94l0,0l-18.01,0l-2.35,5.48l16.44,0l0,0l-14.09,23.49l8.61,0l14.09,-23.49l0,0l20.36,0l4.7,23.49l16.44,0l-12.53,-69.69l-10.96,0l0,0.78zm-14.09,39.94l0,0l11.75,-21.14l3.92,21.14l-15.66,0zm248.22,-7.83l0,0l-10.18,0l-1.57,6.26l10.18,0l0,0l-10.18,31.32l45.42,0l1.57,-6.26l-28.19,0l7.83,-25.06l18.01,0l1.57,-5.48l-18.01,0l0,0l8.61,-25.84l28.19,0l1.57,-6.26l-45.42,0l-9.4,31.32zm117.46,-32.1l-16.44,0l-21.93,69.69l39.94,0l2.35,-6.26l-23.49,0l19.58,-63.43zm184.8,0l-16.44,0l-22.71,69.69l39.94,0l2.35,-6.26l-23.49,0l20.36,-63.43zm79.87,0l-22.71,39.94l0,0l-18.01,0l-2.35,5.48l16.44,0l0,0l-14.09,23.49l8.61,0l14.09,-23.49l0,0l20.36,0l4.7,23.49l16.44,0l-12.53,-69.69l-10.96,0l0,0.78zm-14.09,39.94l0,0l11.75,-21.14l3.92,21.14l-15.66,0zm-694.56,-7.05l-25.84,0l10.18,-32.89l-16.44,0l-10.18,32.89l-17.23,0l-1.57,6.26l16.44,0l-9.4,30.54l16.44,0l9.4,-30.54l25.84,0l-9.4,30.54l16.44,0l21.93,-69.69l-16.44,0l-10.18,32.89zm197.33,-22.71l3.13,-5.48c-32.89,-18.01 -56.38,16.44 -32.89,32.1c3.92,2.35 9.4,4.7 14.88,8.61c14.09,9.4 -7.05,29.76 -28.19,10.96l-3.92,5.48c16.44,14.09 43.85,9.4 48.55,-12.53c1.57,-7.83 0,-14.09 -6.26,-18.01c-6.26,-4.7 -10.18,-5.48 -14.88,-7.83c-17.23,-7.83 -0.78,-26.62 19.58,-13.31zm79.87,0l3.13,-5.48c-32.89,-18.01 -56.38,16.44 -32.89,32.1c3.92,2.35 9.4,4.7 14.88,8.61c14.09,9.4 -7.05,29.76 -28.19,10.96l-4.7,5.48c16.44,14.09 43.85,9.4 48.55,-12.53c1.57,-7.83 0,-14.09 -6.26,-18.01c-6.26,-4.7 -10.18,-5.48 -14.88,-7.83c-16.44,-7.83 0,-26.62 20.36,-13.31zm253.7,-10.18c-20.36,0 -22.71,0 -22.71,0l-10.96,32.1l-6.26,0l-3.92,0l-2.35,6.26l10.96,0l0,0l-8.61,25.06l-1.57,6.26l31.32,0c32.1,-0.78 43.07,-29.76 18.79,-35.24c26.62,-8.61 23.49,-34.45 -4.7,-34.45zm-14.88,63.43l-5.48,0l-6.26,0l7.83,-25.06l10.18,0c19.58,0 6.26,24.27 -6.26,25.06zm7.83,-31.32l-8.61,0l7.83,-25.84l3.92,0c18.01,-0.78 14.09,25.06 -3.13,25.84zm288.16,-32.1l-20.36,0l-22.71,69.69l26.62,0c54.03,-2.35 64.21,-70.47 16.44,-69.69zm-17.23,62.64l-7.83,0l19.58,-56.38l5.48,0c25.84,0 13.31,56.38 -17.23,56.38z" fill="#000" id="svg_1"/>
 </g>
</svg>