<?xml version="1.0"?>
<svg width="466" height="207" xmlns="http://www.w3.org/2000/svg" xmlns:svg="http://www.w3.org/2000/svg" version="1.1" xml:space="preserve">
 <g class="layer">
  <title>Layer 1</title>
  <g fill="#fff" id="svg_1" transform="matrix(11.3463 0 0 11.3463 225.169 -63.1591)">
   <path d="m20.37,17.66c0,0 -0.63,0.46 -1.07,0.46c-0.34,0 -0.52,-0.29 -0.52,-0.59c0,-0.7 1.09,-4.12 1.09,-4.12l-2.66,0.04l-0.14,0.46c0,0 -0.39,-0.78 -1.78,-0.78c-2.71,0 -4.19,2.33 -4.25,3.7c-0.02,0.3 -0.02,0.34 -0.02,0.34c-0.06,0.08 -1.02,1.16 -2.19,1.16c-0.94,0 -1.1,-0.78 -1.1,-1.29c0,-0.54 0.45,-2.7 1.73,-2.7c0.7,0 1.13,0.61 1.13,0.61l0.38,-1.24c0,0 -0.6,-0.46 -1.81,-0.46c-2.62,-0.01 -4.41,1.96 -4.47,3.73c-0.01,0.26 -0.02,0.35 -0.02,0.36c-0.09,0.11 -0.73,0.85 -1.57,0.85c-0.57,0 -0.57,-0.44 -0.57,-0.64c0,-0.27 1.13,-4.12 1.13,-4.12l-2.95,0.04l-1.06,3.74c0,0 -1.62,1.17 -3.89,1.33c-1.16,0.08 -1.57,-0.63 -1.57,-1.04c0,-0.17 0,-0.17 0,-0.17s0.48,0.03 0.84,0.03c0.27,0 3.73,-0.24 3.73,-2.36c0,-1.2 -1.21,-1.66 -2.74,-1.66c-2.82,0 -4.8,1.75 -4.8,3.82c0,1.9 1.62,2.71 3.71,2.71c2.37,0 4.68,-1.45 4.68,-1.45s0.13,1.45 2,1.45c1.93,0 3.44,-1.45 3.44,-1.45s0.84,1.4 2.76,1.4c1.96,0 3.46,-1.59 3.46,-1.59s0.53,1.5 2.47,1.5c1.52,0 2.33,-1 2.33,-1s0.44,1 1.76,1c1.61,0 2.82,-1.14 2.82,-1.14l-0.28,-0.93zm-24.23,-3.46c0.4,0.02 0.67,0.31 0.66,0.6c-0.07,1.88 -2.38,1.59 -2.38,1.59s0.37,-2.27 1.72,-2.19zm18.6,4.13c-0.73,0 -0.73,-0.8 -0.73,-1.03c0,-0.61 0.48,-3.04 1.8,-3.04c0.56,0 0.85,0.47 0.85,0.82c0,0.07 -0.33,3.25 -1.92,3.25z" id="svg_2"/>
   <path d="m20.9,20.2c0,0 -6.21,2.16 -18.06,2.01c-8.18,-0.1 -14.41,-2.51 -14.41,-2.51s0.2,-0.4 0.33,-0.66c0.82,-1.67 1.79,-5.06 1.79,-5.06s5.62,-1.57 5.62,-6.03c0,-1.41 -1.31,-2.32 -2.61,-2.38c-4.53,-0.17 -5.79,6.28 -6.06,7.38c-0.02,0.08 -0.03,0.1 -0.03,0.1c-1.4,-0.19 -2.18,-0.47 -2.18,-0.47l-0.32,0.87c0.94,0.44 2.31,0.59 2.31,0.59c-0.27,1.73 -1.61,5 -1.61,5s-1.24,-0.41 -2.78,-0.41c-2,0 -2.68,0.95 -2.73,1.55c-0.13,1.54 1.8,2.26 3.16,2.26c2.64,0 4.01,-1.42 4.01,-1.42s7.42,2.8 15.17,2.8c10.14,0 18.69,-2.7 18.69,-2.7l-0.29,-0.92zm-27.13,-13.35c0.87,0 1.16,0.71 1.09,1.34c-0.43,3.73 -4.13,4.59 -4.13,4.59s0.92,-5.93 3.04,-5.93zm-11.02,14.39c-0.75,0.02 -1.24,-0.47 -1.24,-0.75c0,-0.61 0.76,-0.71 1.24,-0.68c1.16,0.06 2.15,0.46 2.15,0.46s-1.17,0.94 -2.15,0.97z" id="svg_3"/>
   <path d="m2.77,9.92c-0.94,0 -1.64,0.39 -1.64,1.27c0,0.89 0.8,1.14 1.64,1.14c0.83,0 1.6,-0.4 1.6,-1.3c0,-0.92 -0.92,-1.11 -1.6,-1.11z" id="svg_4"/>
  </g>
 </g>
</svg>