<?xml version="1.0"?>
<svg width="544" height="107" xmlns="http://www.w3.org/2000/svg" xmlns:svg="http://www.w3.org/2000/svg" preserveAspectRatio="xMidYMid meet" version="1.0">
 <g class="layer">
  <title>Layer 1</title>
  <g fill="#fff" id="svg_1" transform="matrix(0.120085 0 0 -0.120085 0.200849 -0.238508)">
   <path d="m5.33,-8.99c-4,-3 -7,-194 -7,-423c0,-318 3,-420 13,-432c10,-14 64,-17 405,-23l392,-6l0,60l0,61l-299,0c-229,0 -302,3 -308,13c-4,6 -9,180 -11,385l-4,372l-87,0c-48,0 -91,-3 -94,-7z" id="svg_2"/>
   <path d="m928.33,-464.99c0,-274 8,-324 63,-383l32,-34l353,-2l352,-3l30,30c16,17 39,56 50,87c18,52 20,83 20,303l0,245l-80,0l-80,0l0,-240c0,-154 -4,-248 -11,-263c-19,-43 -46,-47 -280,-47c-237,0 -270,6 -283,52c-3,13 -6,130 -6,261l0,237l-80,0l-80,0l0,-243z" id="svg_3"/>
   <path d="m2008.33,-556.99l0,-335l80,0l80,0l2,204l3,205l135,-202l135,-202l77,-3l77,-3l134,201c74,110 137,197 140,193c4,-3 7,-94 7,-200l0,-194l78,3l77,3l3,333l2,332l-82,0l-83,0l-175,-265c-96,-145 -177,-265 -180,-265c-3,0 -81,119 -175,265l-170,264l-82,1l-83,0l0,-335z" id="svg_4"/>
   <path d="m3258.33,-550.99l0,-328l71,-7c39,-3 75,-4 80,-1c5,4 9,144 9,336l0,329l-80,0l-80,0l0,-329z" id="svg_5"/>
   <path d="m3568.33,-225.99c0,-2 44,-41 97,-87c54,-46 135,-116 180,-156l83,-72l-192,-167c-106,-92 -194,-171 -196,-176c-2,-4 39,-8 92,-8l95,0l58,49c32,27 100,85 152,130l94,81l36,-30c20,-16 86,-72 146,-124l110,-96l103,0l103,0l-153,132c-85,73 -174,150 -198,171l-45,39l26,21c15,12 98,83 184,157l157,135l-102,3l-101,3l-107,-92c-59,-51 -118,-103 -132,-116l-26,-23l-133,115l-133,115l-99,0c-54,0 -99,-2 -99,-4z" id="svg_6"/>
  </g>
 </g>
</svg>