<?xml version="1.0"?>
<svg width="885" height="245" xmlns="http://www.w3.org/2000/svg" xmlns:svg="http://www.w3.org/2000/svg" preserveAspectRatio="xMidYMid meet" version="1.0">
 <g class="layer">
  <title>Layer 1</title>
  <g fill="#000000" id="svg_1" transform="matrix(0.0676614 0 0 -0.0676614 445.642 -45.334)">
   <path d="m-2186.33,-675.45c-281,-34 -493,-255 -473,-494c12,-155 114,-262 294,-311c92,-24 282,-30 378,-10c160,32 317,141 373,256c96,201 43,386 -140,494c-94,55 -281,83 -432,65z" id="svg_2"/>
   <path d="m-5836.33,-796.45c-2,-7 -25,-110 -51,-228c-26,-118 -62,-282 -81,-365c-138,-625 -176,-798 -189,-850c-8,-33 -25,-112 -39,-175c-24,-114 -68,-311 -171,-770c-8,-36 -30,-135 -49,-220c-19,-85 -39,-175 -45,-200c-23,-97 -123,-556 -125,-570c-1,-13 58,-15 466,-18l467,-2l7,37c28,154 174,811 259,1158c25,105 62,259 82,343c20,83 39,152 42,152c5,0 72,-170 246,-630c61,-160 90,-235 267,-695c47,-121 97,-253 112,-293l28,-72l446,2l446,3l9,35c11,43 126,548 212,930c35,157 87,386 115,510c29,124 67,293 85,375c36,163 121,536 154,680c105,454 191,851 187,862c-4,11 -89,13 -456,13l-450,0l-10,-22c-5,-13 -18,-66 -29,-118c-11,-52 -52,-237 -91,-410c-39,-173 -102,-454 -140,-625c-102,-460 -121,-538 -130,-528c-5,4 -38,89 -75,188c-36,99 -72,196 -80,215c-8,19 -29,78 -48,130c-42,117 -226,614 -344,930l-88,235l-468,3c-369,2 -468,0 -471,-10z" id="svg_3"/>
   <path d="m-1029.33,-792.45c-118,-2 -123,-4 -128,-25c-3,-12 -23,-105 -45,-207c-23,-102 -47,-212 -55,-245c-8,-33 -48,-215 -90,-405c-41,-190 -86,-392 -100,-450c-14,-58 -50,-220 -80,-360c-31,-140 -71,-325 -90,-410c-20,-85 -49,-218 -66,-295c-17,-77 -73,-331 -125,-564c-52,-233 -94,-428 -94,-432c0,-5 204,-9 454,-9l454,0l5,23c9,44 78,343 92,402c16,66 40,170 110,465c25,107 56,237 68,287c12,51 25,93 29,93c3,0 10,-15 13,-32c7,-31 35,-125 170,-573c30,-99 75,-252 100,-340c25,-88 57,-197 71,-243l25,-82l465,0c287,0 464,4 464,10c0,5 -29,109 -64,232c-35,123 -98,347 -141,498c-42,151 -99,353 -126,449c-43,154 -47,177 -35,195c7,12 74,94 147,182c74,89 168,203 209,254c41,51 80,98 85,104c6,6 107,128 225,271c117,143 222,270 233,283l20,22l-524,0l-524,0l-197,-238c-108,-130 -272,-328 -364,-439c-92,-112 -171,-203 -175,-203c-4,0 -3,15 2,33c5,17 24,102 43,187c20,85 47,205 60,265c14,61 41,182 61,270c19,88 55,250 80,360c97,425 146,657 142,661c-5,6 -629,10 -804,6z" id="svg_4"/>
   <path d="m2222.67,-1594.45c-306,-32 -587,-127 -804,-273c-110,-73 -283,-251 -364,-373c-120,-180 -207,-396 -259,-639c-20,-96 -23,-138 -23,-325c0,-200 2,-222 27,-320c108,-426 366,-655 825,-734c484,-83 977,1 1319,227c141,93 299,263 412,442c90,144 185,397 229,608c24,120 27,153 27,357c1,222 0,226 -28,310c-125,372 -409,611 -831,700c-117,24 -386,34 -530,20zm241,-731c93,-45 113,-110 84,-277c-18,-99 -73,-351 -100,-457c-63,-245 -99,-352 -133,-397c-43,-56 -106,-94 -191,-115c-174,-42 -322,46 -319,192c2,134 159,799 214,907c37,72 130,141 223,164c67,18 167,10 222,-17z" id="svg_5"/>
   <path d="m5707.67,-1640.45c-229,-42 -459,-168 -620,-341c-73,-77 -70,-94 -21,135c20,93 25,135 17,138c-6,2 -216,3 -466,2l-455,-3l-13,-65c-8,-36 -41,-186 -74,-335c-33,-148 -74,-340 -93,-425c-49,-233 -93,-435 -115,-530c-21,-93 -88,-399 -146,-665c-20,-93 -51,-234 -69,-312c-17,-79 -29,-145 -27,-148c3,-3 211,-5 463,-5c427,0 458,1 462,18c11,39 176,792 272,1239c53,245 79,307 165,386c81,75 148,100 252,95c63,-4 86,-10 124,-34c97,-60 116,-158 70,-368c-14,-61 -54,-246 -90,-411c-37,-165 -75,-340 -86,-390c-84,-379 -110,-501 -110,-517c0,-17 22,-18 454,-18c424,0 455,1 460,18c3,9 21,91 40,182c20,91 58,269 86,395c28,127 64,291 80,365c16,74 52,239 80,365c72,325 121,552 132,610c17,83 5,231 -22,295c-66,152 -195,268 -348,312c-93,27 -289,33 -402,12z" id="svg_6"/>
   <path d="m-2712.33,-1700.45c0,-7 -66,-310 -85,-389c-8,-33 -39,-175 -70,-315c-31,-140 -69,-311 -85,-380c-15,-69 -33,-147 -39,-175c-6,-27 -26,-117 -45,-200c-19,-82 -56,-247 -81,-365c-26,-118 -69,-313 -96,-434c-27,-120 -49,-222 -49,-227c0,-5 191,-8 457,-7l456,3l69,305c38,168 77,343 87,390c11,47 31,137 46,200c14,63 33,147 40,185c8,39 44,201 80,360c36,160 95,423 130,585c36,162 74,332 85,377c11,45 20,85 20,88c0,3 -207,5 -460,5c-253,0 -460,-3 -460,-6z" id="svg_7"/>
  </g>
 </g>
</svg>