<?xml version="1.0"?>
<svg width="674" height="84" xmlns="http://www.w3.org/2000/svg" xmlns:svg="http://www.w3.org/2000/svg" preserveAspectRatio="xMidYMid meet" version="1.0">
 <g class="layer">
  <title>Layer 1</title>
  <g fill="#fff" id="svg_1" transform="matrix(0.283373 0 0 -0.283373 -1.83373 -0.66476)">
   <path d="m130.47,-7.72c-80,-21 -124,-71 -124,-141c0,-91 71,-145 190,-145c116,1 185,54 185,145c0,58 -24,97 -78,123c-42,21 -127,30 -173,18zm116,-71c15,-15 20,-33 20,-70c0,-61 -24,-90 -74,-90c-45,0 -76,37 -76,92c0,74 82,116 130,68z" id="svg_2"/>
   <path d="m2154.47,-7.72c-76,-16 -113,-64 -90,-116c11,-24 30,-32 142,-57c44,-11 55,-17 55,-33c0,-16 -8,-21 -43,-23c-31,-2 -44,1 -48,12c-8,21 -124,23 -124,3c0,-46 103,-83 206,-74c95,7 145,50 130,111c-8,32 -43,50 -127,65c-77,15 -94,23 -86,45c7,18 72,23 82,6c3,-5 33,-10 66,-10c57,0 59,1 49,21c-22,40 -133,66 -212,50z" id="svg_3"/>
   <path d="m416.47,-148.72l0,-140l125,0l125,0l0,30l0,30l-70,0l-70,0l0,110l0,110l-55,0l-55,0l0,-140z" id="svg_4"/>
   <path d="m590.47,-23.72c3,-8 28,-48 56,-90c44,-65 50,-81 50,-125l0,-50l55,0l55,0l0,48c0,41 8,60 60,140l59,92l-58,0l-58,0l-18,-40c-30,-66 -40,-68 -72,-11l-28,51l-54,0c-43,0 -52,-3 -47,-15z" id="svg_5"/>
   <path d="m936.47,-148.72l0,-140l45,0l45,0l0,72c0,83 8,81 44,-7c21,-53 28,-60 54,-63c29,-3 31,0 58,67c16,39 32,71 37,71c4,0 7,-31 7,-70l0,-70l45,0l45,0l0,140l0,140l-55,0l-56,0l-40,-87l-40,-88l-38,85l-37,85l-57,3l-57,3l0,-141z" id="svg_6"/>
   <path d="m1356.47,-147.72l0,-141l50,0l50,0l0,50l0,50l58,0c109,0 162,30 162,92c0,15 -11,40 -24,55c-24,28 -25,28 -160,31l-136,4l0,-141zm208,55c5,-24 -14,-36 -61,-36c-39,0 -55,16 -43,46c9,24 100,16 104,-10z" id="svg_7"/>
   <path d="m1696.47,-102.72c0,-112 12,-151 52,-172c74,-38 220,-25 258,23c17,22 20,41 20,134l0,109l-55,0l-55,0l0,-103c0,-112 -6,-127 -51,-127c-50,0 -59,21 -59,131l0,99l-55,0l-55,0l0,-94z" id="svg_8"/>
  </g>
 </g>
</svg>