<?xml version="1.0"?>
<svg width="634" height="123" xmlns="http://www.w3.org/2000/svg" xmlns:svg="http://www.w3.org/2000/svg">
 <g class="layer">
  <title>Layer 1</title>
  <g fill="#fff">
   <path d="m109.13,0.02l85.68,0l0,22.64l-49.75,0l0,26.07l40.95,0l0,24.24l-41.2,0l0,28.38l50.29,0l0,21.37l-86.24,0l0.25,-122.68l0.02,-0.02z" id="svg_16"/>
   <path d="m109.13,0.02l85.68,0l0,22.64l-49.75,0l0,26.07l40.95,0l0,24.24l-41.2,0l0,28.38l50.29,0l0,21.37l-86.24,0l0.25,-122.68l0.02,-0.02z" id="svg_17"/>
   <path d="m209.38,0.02l0,122.68l31.54,0l0,-63.03l27.86,63.03l36.25,0l0,-122.68l-30.78,0l0,70.85l-30.46,-70.85l-34.4,0l-0.02,0z" id="svg_18"/>
   <path d="m209.38,0.02l0,122.68l31.54,0l0,-63.03l27.86,63.03l36.25,0l0,-122.68l-30.78,0l0,70.85l-30.46,-70.85l-34.4,0l-0.02,0z" id="svg_19"/>
   <path d="m314.89,0.02l0,23.72l36.5,0l0,98.96l36.45,0l0,-99.23l34.91,0l0,-23.47l-107.86,0l0,0.02z" id="svg_20"/>
   <path d="m314.89,0.02l0,23.72l36.5,0l0,98.96l36.45,0l0,-99.23l34.91,0l0,-23.47l-107.86,0l0,0.02z" id="svg_21"/>
   <path d="m406.34,122.7l41.66,-122.68l31.23,0l38.6,122.68l-34.15,0l-6.24,-19.27l-31.23,0l-5.47,19.27l-34.4,0l0,0zm44.84,-40.89l22.91,0l-10.94,-41.97l-11.96,41.97z" id="svg_22"/>
   <path d="m406.34,122.7l41.66,-122.68l31.23,0l38.6,122.68l-34.15,0l-6.24,-19.27l-31.23,0l-5.47,19.27l-34.4,0l0,0zm44.84,-40.89l22.91,0l-10.94,-41.97l-11.96,41.97z" id="svg_23"/>
   <path d="m518.59,122.7l35.43,-62.77l-32.56,-59.91l37.47,0l17.73,34.91l16.15,-34.91l35.17,0l-31.28,59.91l37.52,62.77l-37.27,0l-20.29,-38.85l-19.79,38.85l-38.29,0z" id="svg_24"/>
   <path d="m518.59,122.7l35.43,-62.77l-32.56,-59.91l37.47,0l17.73,34.91l16.15,-34.91l35.17,0l-31.28,59.91l37.52,62.77l-37.27,0l-20.29,-38.85l-19.79,38.85l-38.29,0z" id="svg_25"/>
   <path d="m68.9,0.17c23.72,0 28.78,28.78 28.78,28.78l0,36.18c0,28.38 -28.63,28.67 -28.63,28.67l-33.9,0l0,28.88l-35.17,0l0,-122.68c0,0 45.18,0.16 68.9,0.16zm-6.4,30.57c-0.25,-6.49 -4.39,-7.82 -6.49,-7.82c-2.1,0 -17.18,0 -19.02,0c-1.79,0 -2.1,2.87 -2.1,2.87l0,39.87c0,2.56 2.1,2.35 2.1,2.35l19.02,0c6.74,0 6.49,-8.07 6.49,-8.07l0,-29.19z" id="svg_26"/>
   <path d="m68.9,0.17c23.72,0 28.78,28.78 28.78,28.78l0,36.18c0,28.38 -28.63,28.67 -28.63,28.67l-33.9,0l0,28.88l-35.17,0l0,-122.68c0,0 45.18,0.16 68.9,0.16zm-6.4,30.57c-0.25,-6.49 -4.39,-7.82 -6.49,-7.82c-2.1,0 -17.18,0 -19.02,0c-1.79,0 -2.1,2.87 -2.1,2.87l0,39.87c0,2.56 2.1,2.35 2.1,2.35l19.02,0c6.74,0 6.49,-8.07 6.49,-8.07l0,-29.19z" id="svg_27"/>
  </g>
 </g>
</svg>