<?xml version="1.0"?>
<svg width="600" height="107" xmlns="http://www.w3.org/2000/svg" xmlns:svg="http://www.w3.org/2000/svg" preserveAspectRatio="xMidYMid meet" version="1.0">
 <g class="layer">
  <title>Layer 1</title>
  <g fill="#000000" id="svg_1" transform="matrix(0.1 0 0 -0.1 0 0)">
   <path d="m265,-8.36c-82,-4 -176,-8 -207,-9l-58,-1l0,-515l0,-515l165,0l165,0l0,434l0,435l44,6c24,4 110,5 192,3c127,-2 155,-6 189,-24c60,-31 88,-78 82,-137c-9,-102 -96,-146 -319,-163l-98,-7l0,-42c0,-41 3,-45 83,-113c89,-76 254,-243 331,-334l48,-58l195,0l195,0l-61,68c-70,79 -240,232 -343,310c-40,30 -73,57 -73,60c0,3 32,11 72,18c91,15 169,51 217,99c53,52 70,97 69,181c0,159 -93,247 -308,290c-87,17 -380,24 -580,14z" id="svg_2"/>
   <path d="m2546,-9.36c-378,-55 -602,-298 -557,-601c32,-212 191,-366 450,-436c86,-23 115,-25 271,-25c194,0 273,14 398,73l63,29l-47,63c-25,35 -49,63 -53,63c-3,-1 -36,-11 -74,-23c-161,-52 -343,-49 -463,9c-143,68 -219,218 -193,381c44,272 372,385 709,244c11,-5 27,13 58,61c23,38 43,73 43,78c2,17 -150,65 -251,80c-103,16 -260,18 -354,4z" id="svg_3"/>
   <path d="m3765,-8.36c-295,-46 -494,-217 -528,-454c-40,-278 129,-505 438,-587c119,-32 364,-33 490,-1c292,74 450,253 450,512c0,255 -155,434 -440,510c-92,24 -311,35 -410,20zm317,-193c69,-34 111,-80 152,-167c28,-60 31,-73 31,-170c0,-97 -3,-110 -31,-170c-41,-87 -83,-133 -152,-167c-51,-25 -68,-28 -157,-28c-89,0 -106,3 -157,28c-70,34 -130,100 -160,176c-33,82 -32,241 1,326c31,77 107,154 181,184c81,31 214,26 292,-12z" id="svg_4"/>
   <path d="m1430,-538.36l0,-510l175,0l175,0l0,510l0,510l-175,0l-175,0l0,-510z" id="svg_5"/>
   <path d="m4820,-538.36l0,-510l170,0l170,0l0,215l0,215l255,0l255,0l0,-215l0,-215l165,0l165,0l0,510l0,510l-165,0l-165,0l0,-195l0,-195l-255,0l-255,0l0,195l0,195l-170,0l-170,0l0,-510z" id="svg_6"/>
  </g>
 </g>
</svg>