<?xml version="1.0"?>
<svg width="642" height="139" xmlns="http://www.w3.org/2000/svg" xmlns:svg="http://www.w3.org/2000/svg" preserveAspectRatio="xMidYMid meet" version="1.0">
 <g class="layer">
  <title>Layer 1</title>
  <g fill="#000000" id="svg_1" transform="matrix(0.146539 0 0 -0.146539 -18.6156 -0.145524)">
   <path d="m410.03,-7.87c-183,-33 -283,-132 -283,-279c0,-68 23,-136 58,-174c44,-49 154,-78 362,-97c147,-13 183,-22 210,-57c45,-57 7,-129 -81,-154c-94,-27 -311,-10 -438,35c-24,9 -49,16 -55,16c-7,0 -19,-34 -27,-80l-16,-80l66,-20c153,-48 364,-63 493,-36c141,30 241,105 268,201c17,62 8,156 -22,213c-47,91 -126,123 -353,142c-193,16 -216,20 -242,46c-29,29 -32,93 -5,117c43,40 93,51 222,51c122,0 265,-24 320,-54c20,-11 19,-12 46,93c2,9 6,25 9,35c7,23 -20,36 -129,63c-93,23 -321,34 -403,19z" id="svg_2"/>
   <path d="m1827.03,-6.87c-180,-27 -293,-98 -358,-228c-71,-141 -70,-349 3,-492c86,-171 344,-259 602,-205c139,28 231,91 272,185c21,47 41,183 41,282l0,57l-255,0l-255,0l0,-75l0,-75l155,0l155,0l0,-27c0,-81 -52,-161 -118,-185c-22,-8 -80,-13 -143,-12c-95,0 -111,3 -162,28c-106,51 -152,139 -151,286c2,137 46,214 157,272c35,18 63,22 162,26c119,3 166,-4 331,-53c18,-6 23,1 41,65l21,71l-30,15c-94,49 -343,83 -468,65z" id="svg_3"/>
   <path d="m1107.03,-472.87l0,-435l90,0l90,0l0,435l0,435l-90,0l-90,0l0,-435z" id="svg_4"/>
   <path d="m2607.03,-45.87c0,-7 -118,-733 -135,-829l-6,-33l91,0c49,0 90,2 90,5c0,16 92,620 95,623c4,4 17,-41 90,-313c31,-116 63,-234 71,-262l15,-53l77,0l77,0l85,315c47,173 87,311 91,307c3,-4 22,-135 43,-292c21,-157 40,-295 43,-308c5,-21 10,-22 99,-22c70,0 92,3 89,13c-5,14 -135,827 -135,845c0,9 -35,12 -124,12l-123,0l-68,-237c-37,-131 -70,-244 -74,-251c-4,-7 -39,99 -77,235l-71,248l-121,3c-67,1 -122,-1 -122,-6z" id="svg_5"/>
   <path d="m3896.03,-84.87c-38,-89 -329,-812 -329,-818c0,-3 41,-4 92,-3l92,3l32,80l32,80l220,3l219,2l30,-82l30,-83l98,-3c90,-3 97,-1 92,15c-2,10 -69,182 -147,383c-78,201 -151,389 -162,418l-19,52l-130,0l-130,0l-20,-47zm220,-294c39,-102 71,-191 71,-197c0,-9 -45,-12 -156,-12c-121,0 -155,3 -151,13c30,79 160,387 162,385c2,-2 35,-87 74,-189z" id="svg_6"/>
  </g>
 </g>
</svg>