<?xml version="1.0"?>
<svg width="944" height="168" xmlns="http://www.w3.org/2000/svg" xmlns:svg="http://www.w3.org/2000/svg" preserveAspectRatio="xMidYMid meet" version="1.0">
 <g class="layer">
  <title>Layer 1</title>
  <g fill="#000000" id="svg_1" transform="matrix(0.1 0 0 -0.1 0 0)">
   <path d="m423.45,-5.52c-60,-7 -164,-45 -211,-76c-32,-21 -122,-109 -148,-145c-62,-84 -84,-280 -45,-407c18,-59 27,-71 113,-152c66,-61 118,-100 176,-130c45,-23 89,-48 97,-55c8,-6 36,-24 62,-39c44,-25 72,-46 122,-93c35,-33 56,-78 56,-117c0,-35 -6,-46 -51,-88c-32,-29 -67,-52 -93,-59c-55,-15 -189,-5 -251,19c-40,15 -182,74 -240,98c-6,3 -10,-55 -10,-162l0,-166l75,-30c130,-52 343,-71 506,-44c100,16 188,62 257,135c27,28 52,51 56,51c5,0 23,44 40,98c42,132 43,225 3,339c-26,72 -35,87 -88,133c-32,29 -69,59 -82,68c-13,8 -36,27 -52,42c-15,14 -46,32 -69,40c-22,7 -77,37 -122,66c-45,29 -90,56 -100,59c-10,4 -19,11 -19,16c0,5 -16,26 -35,46c-41,44 -50,68 -42,125c8,56 55,103 120,119c85,20 226,6 350,-35c58,-20 108,-36 111,-36c4,0 6,71 6,158l0,157l-42,11c-24,6 -68,21 -98,32c-65,24 -247,35 -352,22z" id="svg_2"/>
   <path d="m2409.45,-9.52c-2,-6 -3,-382 -2,-836l3,-825l150,0l150,0l3,453c1,256 6,452 11,452c5,0 13,-12 19,-27c5,-16 47,-66 92,-113c45,-47 92,-101 105,-120c12,-19 47,-60 76,-91c80,-82 109,-118 109,-132c0,-8 11,-20 25,-27c14,-7 32,-24 40,-36c15,-23 66,-84 145,-174c21,-25 55,-63 74,-85c100,-115 89,-106 142,-103l49,3l3,833l2,832l-155,0l-156,0l1,-451c1,-248 0,-452 -2,-455c-4,-3 -101,105 -189,210c-30,35 -107,123 -137,156c-13,14 -49,56 -80,94c-31,39 -76,87 -99,109c-24,22 -43,45 -43,51c0,6 -41,54 -90,106c-49,52 -90,100 -90,105c0,6 -14,24 -29,42c-23,25 -39,32 -76,36c-28,2 -48,0 -51,-7z" id="svg_3"/>
   <path d="m8263.45,-3.52c-17,-3 -18,-51 -18,-838l0,-835l148,3l147,3l3,453c1,252 6,452 11,452c5,0 12,-7 15,-16c9,-24 44,-68 108,-136c32,-34 76,-84 97,-112c22,-28 72,-85 110,-126c39,-41 71,-80 71,-87c0,-6 8,-18 18,-25c19,-13 138,-148 181,-203c25,-33 103,-121 153,-173c28,-29 37,-33 77,-30l46,3l3,833l2,832l-150,0l-150,0l0,-455c0,-250 -2,-455 -6,-455c-3,0 -18,12 -33,28c-34,33 -318,363 -348,404c-12,17 -30,38 -40,48c-10,9 -25,27 -33,39c-8,11 -20,21 -26,21c-7,0 -21,15 -33,33c-34,53 -50,73 -119,146c-37,38 -87,97 -110,130c-24,34 -49,61 -55,62c-7,0 -21,2 -32,3c-11,1 -28,0 -37,-2z" id="svg_4"/>
   <path d="m1535.45,-12.52c-95,-34 -233,-117 -249,-150c-6,-13 -17,-23 -25,-23c-7,0 -22,-12 -32,-27c-9,-15 -25,-34 -34,-43c-21,-20 -90,-134 -90,-151c0,-6 -12,-37 -26,-68c-32,-68 -64,-245 -64,-359c0,-270 86,-499 247,-659c97,-96 183,-146 281,-163c132,-23 294,-4 369,43c24,15 46,27 51,27c7,0 115,96 144,127c61,66 102,143 169,313l34,85l-1,220c0,187 -3,227 -18,265c-10,25 -28,74 -41,110c-13,36 -35,88 -50,115c-33,61 -104,155 -123,163c-8,2 -36,26 -63,52c-34,33 -78,60 -143,89c-93,40 -96,41 -208,40c-62,0 -120,-3 -128,-6zm228,-345c70,-25 119,-71 183,-175c55,-89 85,-250 69,-375c-20,-155 -26,-171 -118,-311c-35,-52 -102,-95 -175,-112c-54,-13 -69,-12 -119,1c-83,21 -123,48 -172,118c-61,86 -80,127 -106,239c-47,199 2,382 148,556c33,39 126,79 187,80c22,1 68,-9 103,-21z" id="svg_5"/>
   <path d="m4288.45,-15.52c-23,-5 -51,-13 -61,-19c-11,-6 -49,-21 -84,-34c-67,-24 -224,-131 -259,-176c-104,-134 -173,-295 -190,-449c-16,-141 -4,-325 28,-421c14,-42 29,-80 34,-86c5,-5 9,-17 9,-28c0,-10 11,-33 24,-50c13,-18 32,-48 41,-67c16,-31 46,-74 74,-105c5,-5 26,-21 47,-35c20,-14 51,-39 68,-57c46,-47 156,-93 261,-109c56,-9 178,-14 323,-14l232,0l0,175l0,175l-216,0c-322,0 -405,24 -507,145c-60,72 -75,106 -88,200c-14,110 -6,281 17,352c9,30 32,68 54,90c20,22 39,45 41,52c3,8 21,23 40,35c20,11 48,30 63,40c42,30 95,35 354,36l242,0l0,180l0,180l-252,-1c-139,-1 -272,-5 -295,-9z" fill="#C52922" id="svg_6"/>
   <path d="m5107.45,-182.52l3,-178l275,-5c293,-6 276,-4 365,-62c124,-80 184,-213 185,-406c0,-96 -23,-226 -45,-252c-7,-8 -20,-31 -30,-50c-16,-31 -62,-82 -107,-118c-9,-8 -57,-25 -105,-38c-81,-22 -106,-24 -315,-24l-228,0l0,-175l0,-175l233,0c382,1 453,18 616,143c99,77 195,203 240,315c34,87 61,251 61,371c0,132 -28,308 -61,378c-16,34 -29,65 -29,68c0,3 -26,39 -57,81c-32,42 -62,85 -68,95c-5,10 -15,19 -22,19c-7,0 -27,13 -45,28c-18,16 -49,37 -68,48c-19,10 -42,24 -50,31c-8,6 -58,26 -110,44l-95,33l-273,4l-272,3l2,-178z" fill="#C52922" id="svg_7"/>
   <path d="m6355.45,-840.52l0,-836l153,3l152,3l3,833l2,832l-155,0l-155,0l0,-835z" id="svg_8"/>
   <path d="m7346.45,-127.52c-23,-68 -52,-145 -63,-173c-11,-27 -33,-84 -48,-125c-16,-41 -42,-106 -58,-145c-17,-38 -40,-101 -52,-140c-21,-66 -55,-153 -102,-254c-11,-24 -32,-81 -48,-125c-46,-131 -52,-147 -87,-232c-18,-45 -33,-87 -33,-93c0,-7 -12,-32 -26,-57c-19,-32 -64,-172 -64,-199c0,-1 67,-3 149,-4c125,-2 151,0 165,14c8,9 28,55 43,103c44,145 12,132 322,132c146,0 271,-4 278,-8c6,-4 15,-21 19,-37c4,-17 9,-34 13,-40c3,-5 19,-44 36,-85l31,-75l149,-3c82,-1 152,1 157,6c4,4 -8,48 -28,97c-19,50 -39,106 -44,125c-9,37 -114,300 -154,385c-13,28 -26,66 -30,85c-7,34 -40,121 -96,250c-16,36 -34,85 -40,110c-7,25 -18,52 -25,60c-8,9 -19,37 -25,65c-6,27 -24,78 -39,114c-16,36 -32,77 -36,91c-4,14 -18,45 -30,70c-13,25 -36,82 -51,128l-27,82l-56,0l-57,0l-43,-122zm154,-711c39,-118 82,-229 104,-272c36,-67 40,-65 -155,-65c-163,0 -176,1 -171,18c27,84 99,278 120,323c15,31 27,61 27,68c0,7 5,22 11,33c11,21 12,21 26,-6c8,-15 25,-60 38,-99z" id="svg_9"/>
   <path d="m4840.45,-492.52c-103,-43 -163,-101 -211,-202c-46,-100 -47,-172 -3,-283c25,-62 41,-87 76,-116c25,-20 53,-44 62,-53c44,-44 82,-54 211,-54l125,0l56,37c97,64 142,115 164,188c26,86 26,206 0,275c-39,102 -87,149 -209,205c-85,40 -181,41 -271,3zm154,-118c17,-30 31,-61 31,-68c0,-11 -26,-14 -129,-13c-71,1 -132,4 -136,8c-14,14 8,49 50,78c55,38 81,49 122,49c28,1 35,-5 62,-54zm78,47c34,-10 133,-101 133,-122c0,-10 -16,-41 -35,-70c-29,-43 -36,-49 -42,-33c-4,10 -14,29 -24,43c-51,76 -81,125 -94,156c-14,34 -14,34 13,33c15,-1 37,-4 49,-7zm-215,-148c6,-5 -40,-95 -53,-104c-4,-3 -20,-32 -35,-64c-16,-33 -35,-62 -41,-64c-32,-10 -45,139 -19,203c15,35 15,35 79,35c35,0 66,-3 69,-6zm387,-31c20,-39 23,-127 6,-170l-17,-41l-69,-4c-38,-2 -69,-1 -69,2c0,3 17,37 38,76c90,170 92,172 111,137zm-404,-176c10,-17 34,-58 52,-90c18,-32 40,-65 48,-73c26,-27 18,-37 -25,-31c-61,8 -132,47 -153,85c-20,34 -15,68 18,119c21,31 36,29 60,-10zm365,-85c0,-4 -17,-24 -37,-44c-43,-42 -147,-82 -174,-68c-16,9 -40,52 -54,98l-6,22l135,0c75,0 136,-4 136,-8z" fill="#C52922" id="svg_10"/>
  </g>
 </g>
</svg>