<?xml version="1.0"?>
<svg width="500" height="88" xmlns="http://www.w3.org/2000/svg" xmlns:svg="http://www.w3.org/2000/svg" preserveAspectRatio="xMidYMid meet" version="1.0">
 <g class="layer">
  <title>Layer 1</title>
  <g fill="#fff" id="svg_1" transform="translate(0.000000,88.000000) scale(0.100000,-0.100000)">
   <path d="m355,874c-11,-2 -45,-9 -75,-15c-70,-14 -165,-57 -209,-94c-124,-105 -78,-289 90,-359c48,-20 175,-42 344,-61c248,-26 295,-43 295,-105c0,-91 -178,-141 -380,-106c-172,30 -280,102 -280,186c0,18 -6,20 -55,20l-55,0l0,-155l0,-155l60,0l60,0l0,30c0,17 4,30 8,30c5,0 40,-11 78,-24c244,-85 518,-71 675,36c65,44 92,88 97,158c11,145 -79,233 -278,274c-41,8 -160,25 -265,36c-233,27 -267,40 -252,102c15,60 128,93 297,85c177,-7 290,-56 332,-142c22,-44 23,-45 70,-45l48,0l0,135l0,135l-55,0c-47,0 -55,-3 -55,-18c0,-30 -10,-32 -64,-10c-99,40 -190,59 -301,63c-60,2 -119,2 -130,-1z" id="svg_2"/>
   <path d="m1650,869c-90,-15 -205,-58 -267,-98c-72,-46 -118,-98 -152,-171c-23,-48 -26,-68 -26,-160c0,-99 2,-110 33,-172c114,-233 503,-335 824,-218c170,62 270,173 299,333c23,124 -21,248 -121,341c-66,60 -153,107 -245,131c-73,20 -270,28 -345,14zm214,-114c93,-15 186,-89 228,-180c33,-71 32,-198 -1,-272c-27,-61 -93,-126 -159,-156c-39,-18 -65,-22 -152,-22c-95,0 -111,3 -162,28c-181,89 -232,348 -97,501c46,53 127,95 201,106c53,8 68,7 142,-5z" id="svg_3"/>
   <path d="m2490,780l0,-50l59,0c94,0 91,11 91,-290c0,-142 -3,-265 -6,-274c-5,-12 -21,-16 -70,-16l-64,0l0,-50l0,-50l226,0l225,0l-3,47l-3,48l-72,3c-66,3 -73,5 -78,25c-3,12 -4,112 -3,223l3,201l305,-273l305,-273l81,-1l82,0l-2,338l-1,337l73,3l72,3l0,49l0,50l-230,0l-230,0l0,-50l0,-49l73,-3l72,-3l8,-75c4,-41 6,-126 5,-187l-3,-113l-265,240l-265,239l-192,1l-193,0l0,-50z" id="svg_4"/>
   <path d="m3802,783l3,-48l67,-3c81,-3 72,4 271,-224l138,-157l-3,-98l-3,-98l-67,-3l-68,-3l0,-49l0,-50l265,0l265,0l0,50l0,50l-69,0c-82,0 -81,-1 -81,116l0,84l141,162c198,228 185,218 269,218l70,0l0,50l0,50l-220,0l-220,0l0,-50l0,-50l40,0c26,0 40,-5 40,-13c0,-15 -177,-227 -190,-227c-11,0 -190,215 -190,229c0,6 18,11 40,11l40,0l0,50l0,50l-271,0l-270,0l3,-47z" id="svg_5"/>
  </g>
 </g>
</svg>